<?xml version="1.0" encoding="iso-8859-1"?>
<!-- Generator: Adobe Illustrator 16.0.0, SVG Export Plug-In . SVG Version: 6.00 Build 0)  -->
<!DOCTYPE svg PUBLIC "-//W3C//DTD SVG 1.1//EN" "http://www.w3.org/Graphics/SVG/1.1/DTD/svg11.dtd">
<svg version="1.1" id="Capa_1" xmlns="http://www.w3.org/2000/svg" xmlns:xlink="http://www.w3.org/1999/xlink" x="0px" y="0px"
	 width="612.007px" height="612.007px" viewBox="0 0 612.007 612.007" style="enable-background:new 0 0 612.007 612.007;"
	 xml:space="preserve">
<g>
	<path d="M608.259,36.013c-2.482-2.482-6.098-3.651-10.595-3.651c-8.075,0-19.048,3.759-31.62,10.486
		c1.241-10.145-0.234-18.688-5.63-24.084c-4.335-4.335-10.54-6.385-18.059-6.385c-22.987,0-58.26,19.138-90.006,50.902
		c-26.44,26.458-44.104,55.363-49.266,77.559c-16.188,22.825-10.667,36.441,6.025,54.032c-0.863-0.81-1.673-1.565-2.339-2.23
		c-11.637-11.655-42.898-54.572-94.88-54.572c-30.883,0-69.069,15.127-114.863,60.921C74.177,321.931,0,599.628,0,599.628
		s277.554-74.213,400.422-197.135c109.071-109.126,44.157-175.209,15.217-201.686c8.598,7.375,19.947,10.936,32.646,10.936
		c24.696,0,54.519-13.436,79.268-38.186c11.458-11.458,18.851-20.829,23.06-29.031C596.315,98.211,622.127,49.899,608.259,36.013z
		 M371.822,380.244c-4.838,4.839-10.126,9.479-15.45,14.12l-97.92-114.306l-27.304,23.418l96.985,113.209
		c-14.3,10.234-29.462,19.93-45.147,28.959l-60.112-75.185l-28.077,22.465l56.047,70.095
		c-92.2,47.035-187.278,73.026-187.278,73.026s57.198-209.852,155.711-308.419c37.952-37.97,68.781-50.291,93.135-50.309
		c38.852,0,61.228,31.369,69.771,39.931C396.104,231.169,470.336,281.676,371.822,380.244z M524.998,119.256l-3.885,3.939
		l-2.519,4.91c-1.69,3.31-5.936,9.461-16.494,20.038c-20.396,20.397-41.729,27.646-53.816,27.646c-4.19,0-7.536-0.827-9.227-2.266
		l-3.328-2.86l-0.539-0.558c-2.285-2.411-3.796-4.191-4.749-5.432c0.468-0.81,1.115-1.817,1.979-3.022l4.102-5.773l1.601-6.889
		c2.878-12.375,15.001-35.596,39.679-60.292C498,68.497,516.292,57.345,528.649,52.129l-6.745,55.094l26.549-14.192
		C541.96,101.107,534.189,109.92,524.998,119.256z"/>
</g>
<g>
</g>
<g>
</g>
<g>
</g>
<g>
</g>
<g>
</g>
<g>
</g>
<g>
</g>
<g>
</g>
<g>
</g>
<g>
</g>
<g>
</g>
<g>
</g>
<g>
</g>
<g>
</g>
<g>
</g>
</svg>
